<?xml version="1.0" encoding="iso-8859-1"?>
<!-- Generator: Adobe Illustrator 18.0.0, SVG Export Plug-In . SVG Version: 6.00 Build 0)  -->
<!DOCTYPE svg PUBLIC "-//W3C//DTD SVG 1.1//EN" "http://www.w3.org/Graphics/SVG/1.1/DTD/svg11.dtd">
<svg version="1.1" id="Capa_1" xmlns="http://www.w3.org/2000/svg" xmlns:xlink="http://www.w3.org/1999/xlink" x="0px" y="0px"
	 viewBox="0 0 467.611 467.611" style="enable-background:new 0 0 467.611 467.611;" xml:space="preserve">
<g id="Grey">
	<path d="M180.21,159.343L268.822,35.1C285.047,11.705,307.398,0,333.055,0c20.948,0,39.777,7.434,55.083,22.273
		c15.307,14.869,23.319,32.646,23.319,53.345c0,15.322-3.865,28.821-11.971,40.519l-77.234,112.428l94.598,119.847
		c9.445,11.939,14.215,25.905,14.215,41.866c0,21.159-7.42,39.334-22.289,54.546c-14.871,15.197-32.857,22.788-54.024,22.788
		c-23.192,0-43.704-7.544-55.862-22.633L180.21,300.474v79.688c0,22.741-1.091,40.394-8.977,53.003
		c-14.387,22.959-33.886,34.447-61.35,34.447c-25.002,0-42.349-8.448-56.097-25.328c-12.811-15.541-17.239-36.123-17.239-61.795
		V85.064c0-24.284,5.236-44.321,18.299-60.08C68.578,8.322,86.846,0,110.927,0c22.976,0,41.788,8.322,57.095,24.984
		c8.541,9.243,10.911,18.565,13.186,28.018c1.341,5.846-0.998,16.756-0.998,32.748V159.343z"/>
</g>
<g>
</g>
<g>
</g>
<g>
</g>
<g>
</g>
<g>
</g>
<g>
</g>
<g>
</g>
<g>
</g>
<g>
</g>
<g>
</g>
<g>
</g>
<g>
</g>
<g>
</g>
<g>
</g>
<g>
</g>
</svg>
